<svg xmlns="http://www.w3.org/2000/svg" width="1em" height="1em" viewBox="0 0 24 24">
    <path fill="blue"
          d="m11 10.15l-.9-.875Q9.8 9 9.387 9.012T8.7 9.3q-.275.275-.275.7t.275.7l2.6 2.6q.275.275.7.275t.7-.275l2.625-2.625q.275-.275.263-.688T15.3 9.3q-.275-.275-.7-.288t-.7.288l-.9.85V6.975q0-.425-.288-.7T12 6q-.425 0-.713.288T11 7v3.15ZM8 17h8.025q.425 0 .7-.288T17 16q0-.425-.288-.713T16 15H7.975q-.425 0-.7.288T7 16q0 .425.288.713T8 17Zm4 5q-2.075 0-3.9-.788t-3.175-2.137q-1.35-1.35-2.137-3.175T2 12q0-2.075.788-3.9t2.137-3.175q1.35-1.35 3.175-2.137T12 2q2.075 0 3.9.788t3.175 2.137q1.35 1.35 2.138 3.175T22 12q0 2.075-.788 3.9t-2.137 3.175q-1.35 1.35-3.175 2.138T12 22Z"/>
</svg>