<svg xmlns="http://www.w3.org/2000/svg" width="1em" height="1em" viewBox="0 0 24 24">
    <g fill="white">
        <path d="M21.318 6.767v2.36c-.197.04-.433.04-.669.04a7.295 7.295 0 0 1-4.682-1.73v7.79a6.987 6.987 0 0 1-1.416 4.248c-1.299 1.732-3.305 2.833-5.587 2.833c-1.85 0-3.541-.747-4.8-1.928a7.136 7.136 0 0 1-1.062-3.737c0-3.817 3.03-6.925 6.806-7.043v2.597a3.277 3.277 0 0 0-.865-.118c-1.732 0-3.148 1.455-3.148 3.226c0 1.062.512 2.046 1.338 2.597c.433 1.22 1.613 2.124 2.95 2.124c1.732 0 3.148-1.456 3.148-3.226V1.534h2.872c.276.945.787 1.77 1.495 2.4a5.397 5.397 0 0 0 3.62 2.833z"/>
        <path d="M9.908 8.184V9.52c-3.777.118-6.806 3.226-6.806 7.043c0 1.377.393 2.636 1.062 3.738A7.122 7.122 0 0 1 2 15.148c0-3.896 3.148-7.043 7.003-7.043c.315 0 .63.04.905.079z"/>
        <path d="M16.203 1.534h-2.872v15.187c0 1.77-1.416 3.227-3.147 3.227c-1.377 0-2.518-.866-2.951-2.125c.511.354 1.14.59 1.81.59c1.73 0 3.147-1.416 3.147-3.187V0h3.817v.079c0 .157 0 .314.039.472c0 .315.079.669.157.983zm5.115 3.777v1.417c-1.574-.315-2.911-1.377-3.659-2.794a5.11 5.11 0 0 0 3.659 1.377z"/>
    </g>
</svg>